<svg xmlns="http://www.w3.org/2000/svg" version="1.1" xmlns:xlink="http://www.w3.org/1999/xlink" xmlns:svgjs="http://svgjs.dev/svgjs" width="1500" height="196" viewBox="0 0 1500 196"><g transform="matrix(1,0,0,1,-0.9090909090909918,-0.10817124368659847)"><svg viewBox="0 0 396 52" data-background-color="#ffffff" preserveAspectRatio="xMidYMid meet" height="196" width="1500" xmlns="http://www.w3.org/2000/svg" xmlns:xlink="http://www.w3.org/1999/xlink"><g id="tight-bounds" transform="matrix(1,0,0,1,0.2400000000000091,0.028698493222975685)"><svg viewBox="0 0 395.52 51.94260301355403" height="51.94260301355403" width="395.52"><g><svg viewBox="0 0 466.79371035475145 61.302792238523416" height="51.94260301355403" width="395.52"><g><rect width="2.764174534275816" height="30.80465309985801" x="61.27347683022484" y="15.249069569332702" fill="#ffffff" opacity="1" stroke-width="0" stroke="transparent" fill-opacity="1" class="rect-qz-0" data-fill-palette-color="primary" rx="1%" id="qz-0" data-palette-color="#ffffff"></rect></g><g transform="matrix(1,0,0,1,71.27371035475147,15.325698059630854)"><svg viewBox="0 0 395.52 30.651396119261708" height="30.651396119261708" width="395.52"><g id="textblocktransform"><svg viewBox="0 0 395.52 30.651396119261708" height="30.651396119261708" width="395.52" id="textblock"><g><svg viewBox="0 0 395.52 30.651396119261708" height="30.651396119261708" width="395.52"><g transform="matrix(1,0,0,1,0,0)"><svg width="395.52" viewBox="-10.8 -32 422.57 32.75" height="30.651396119261708" data-palette-color="#ffffff"><path d="M9.75-16.85L9.6-15.85Q9.5-15.45 9.4-14.75L9.4-14.75-10.25-16.85 9.75-16.85ZM-10.8-12.05L9.05-12.05Q8.9-10.9 8.9-9.95L8.9-9.95-10.8-12.05ZM-9.05-21.65L10.95-21.65 10.35-19.6-9.05-21.65ZM-10.15-7.25L8.95-7.25Q9.15-5.85 9.3-5.15L9.3-5.15-10.15-7.25ZM-6.7-26.45L13-26.45Q12.3-25.15 12-24.45L12-24.45-6.7-26.45ZM-5.35-2.4L10.45-2.4Q11.1-1.25 11.95-0.55L11.95-0.55-5.35-2.4ZM0.2-31.25L17.75-31.25Q16.3-30.35 15.5-29.6L15.5-29.6 0.2-31.25ZM22.15 0.75L22.15 0.75Q15.85 0.75 13.13-1.7 10.4-4.15 10.4-9.25L10.4-9.25Q10.4-11.4 11.1-15.6L11.1-15.6Q12.6-24.2 16.28-28.1 19.95-32 27.9-32L27.9-32Q29.75-32 32.13-31.63 34.5-31.25 35.6-30.7L35.6-30.7 32.8-23.05Q29.85-23.75 27.28-23.75 24.7-23.75 23.6-23.25 22.5-22.75 22.25-21.25L22.25-21.25 19.95-8.15Q21.75-7.75 23.65-7.75L23.65-7.75Q27.7-7.75 31.05-8.95L31.05-8.95 30.25-0.55Q27.05 0.75 22.15 0.75ZM61.9-7.35L60.6 0 44.35 0 48.95-26.45 57.75-26.45 54.4-7.35 61.9-7.35ZM43.1-2.4L42.7-0.15 21.5-2.4 43.1-2.4ZM44.8-12.05L44.4-9.8 23.2-12.05 44.8-12.05ZM45.65-16.85L45.25-14.6 24.05-16.85 45.65-16.85ZM46.5-21.65L46.1-19.4 24.9-21.65 46.5-21.65ZM47.3-26.45L46.95-24.2 25.75-26.45 47.3-26.45ZM43.95-7.25L43.55-5 22.35-7.25 43.95-7.25ZM81.45 0L72.7 0 77.3-26.45 86.09-26.45 81.45 0ZM71.45-2.4L71.05-0.15 49.85-2.4 71.45-2.4ZM73.15-12.05L72.75-9.8 51.55-12.05 73.15-12.05ZM74-16.85L73.59-14.6 52.4-16.85 74-16.85ZM74.84-21.65L74.45-19.4 53.25-21.65 74.84-21.65ZM75.65-26.45L75.3-24.2 54.1-26.45 75.65-26.45ZM72.3-7.25L71.9-5 50.7-7.25 72.3-7.25ZM120.19-10.75L115.69 0 109.09 0 108.34-10.75 108.09-10.75 105.69 0 97.14 0 103.19-26.45 114.04-26.45 114.79-14.05 114.99-14.05 120.04-26.45 130.89-26.45 127.69 0 119.09 0 120.44-10.75 120.19-10.75ZM95.99-2.4L95.49-0.15 74.29-2.4 95.99-2.4ZM97.14-7.25L96.59-5 75.44-7.25 97.14-7.25ZM98.24-12.05L97.74-9.8 76.59-12.05 98.24-12.05ZM99.29-16.85L98.74-14.6 77.74-16.85 99.29-16.85ZM100.39-21.65L99.89-19.4 78.89-21.65 100.39-21.65ZM101.54-26.45L100.99-24.2 80.04-26.45 101.54-26.45ZM167.04 0L158.29 0 158.09-4.05 151.79-4.05 150.24 0 141.59 0 152.69-26.45 165.09-26.45 167.04 0ZM154.44-11.2L158.09-11.2 158.09-18.8 157.39-18.8 154.44-11.2ZM140.94-2.4L139.99-0.2 119.49-2.4 140.94-2.4ZM142.99-7.25L142.04-5.05 121.54-7.25 142.99-7.25ZM144.99-12.05L144.09-9.85 123.59-12.05 144.99-12.05ZM147.04-16.85L146.09-14.65 125.64-16.85 147.04-16.85ZM149.04-21.65L148.14-19.45 127.69-21.65 149.04-21.65ZM151.04-26.45L150.14-24.3 129.74-26.45 151.04-26.45ZM201.09-26.45L199.74-18.95 194.34-18.95 191.04 0 182.24 0 185.54-18.95 179.99-18.95 181.34-26.45 201.09-26.45ZM181.14-2.4L180.74-0.15 159.54-2.4 181.14-2.4ZM182.84-12.05L182.44-9.8 161.24-12.05 182.84-12.05ZM183.69-16.85L183.29-14.6 162.09-16.85 183.69-16.85ZM178.89-21.65L178.49-19.4 157.29-21.65 178.89-21.65ZM179.69-26.45L179.34-24.2 158.14-26.45 179.69-26.45ZM181.99-7.25L181.59-5 160.39-7.25 181.99-7.25ZM228.34-15.55L227.49-10.75 220.04-10.75 219.44-7.35 228.69-7.35 227.39 0 209.74 0 214.34-26.45 231.94-26.45 229.59-18.95 221.44-18.95 220.84-15.55 228.34-15.55ZM208.49-2.4L208.09-0.15 186.89-2.4 208.49-2.4ZM210.19-12.05L209.79-9.8 188.59-12.05 210.19-12.05ZM211.04-16.85L210.64-14.6 189.44-16.85 211.04-16.85ZM211.89-21.65L211.49-19.4 190.29-21.65 211.89-21.65ZM212.69-26.45L212.34-24.2 191.14-26.45 212.69-26.45ZM209.34-7.25L208.94-5 187.74-7.25 209.34-7.25ZM245.23-19.4L245.23-19.4 224.03-21.65 245.58-21.65Q245.33-20.65 245.23-19.4ZM225.43-26.45L246.93-26.45 246.18-24.25 225.43-26.45ZM224.48-16.85L245.23-16.85Q245.33-15.5 245.63-14.6L245.63-14.6 224.48-16.85ZM252.23-9.8L252.23-9.8 225.78-12.05 247.33-12.05Q248.98-10.45 252.23-9.8ZM229.18-31.25L250.68-31.25Q249.53-30.5 248.48-29.2L248.48-29.2 229.18-31.25ZM242.88-5.05L224.93-7.25 243.63-7.25 242.88-5.05ZM241.28-0.2L224.08-2.4 242.03-2.4 241.28-0.2ZM242.98-0.55L245.78-8.8Q249.98-7.65 253.46-7.65 256.93-7.65 259.13-7.95L259.13-7.95 259.53-10.45 255.38-10.85Q250.63-11.3 248.66-13 246.68-14.7 246.68-17.8L246.68-17.8Q246.68-19.15 246.98-20.8L246.98-20.8Q248.13-27.2 251.18-29.6 254.23-32 260.56-32 266.88-32 271.73-30.75L271.73-30.75 269.13-22.75Q264.78-23.5 262.16-23.5 259.53-23.5 257.63-23.25L257.63-23.25 257.23-20.8 260.58-20.45Q265.68-19.9 267.83-18.03 269.98-16.15 269.98-13L269.98-13Q269.98-9.8 268.63-6.4L268.63-6.4Q267.88-4.65 267.06-3.48 266.23-2.3 264.96-1.48 263.68-0.65 262.63-0.23 261.58 0.2 259.93 0.4L259.93 0.4Q257.63 0.75 254.23 0.75L254.23 0.75Q248.03 0.75 242.98-0.55L242.98-0.55ZM296.23 0L284.88 0 284.88-26.45 293.98-26.45 293.98-12.15 294.23-12.15 299.83-26.45 307.43-26.45 307.43-12.15 307.63-12.15 312.23-26.45 321.78-26.45 312.03 0 301.18 0 300.43-9.35 300.08-9.35 296.23 0ZM263.58-26.45L283.23-26.45 283.23-24.2 263.58-26.45ZM263.58-21.65L283.23-21.65 283.23-19.4 263.58-21.65ZM263.58-16.85L283.23-16.85 283.23-14.6 263.58-16.85ZM263.58-12.05L283.23-12.05 283.23-9.8 263.58-12.05ZM263.58-7.25L283.23-7.25 283.23-5 263.58-7.25ZM263.58-2.4L283.23-2.4 283.23-0.15 263.58-2.4ZM339.13 0L330.38 0 334.98-26.45 343.78-26.45 339.13 0ZM329.13-2.4L328.73-0.15 307.53-2.4 329.13-2.4ZM330.83-12.05L330.43-9.8 309.23-12.05 330.83-12.05ZM331.68-16.85L331.28-14.6 310.08-16.85 331.68-16.85ZM332.53-21.65L332.13-19.4 310.93-21.65 332.53-21.65ZM333.33-26.45L332.98-24.2 311.78-26.45 333.33-26.45ZM329.98-7.25L329.58-5 308.38-7.25 329.98-7.25ZM369.18-6.2L369.18-6.2 364.33-6.2 363.23 0 354.83 0 359.43-26.45 372.13-26.45Q379.38-26.45 379.38-19.6L379.38-19.6Q379.38-16.5 378.48-13.9 377.58-11.3 376.53-9.8 375.48-8.3 373.55-7.25 371.63-6.2 369.18-6.2ZM369.68-14.4L370.28-17.8Q370.28-17.85 370.33-18.1L370.33-18.1Q370.33-19.15 368.18-19.15L368.18-19.15 366.58-19.15 365.53-12.95 367.08-12.95Q368.23-12.95 368.88-13.23 369.53-13.5 369.68-14.4L369.68-14.4ZM353.58-2.4L353.18-0.15 331.98-2.4 353.58-2.4ZM355.28-12.05L354.88-9.8 333.68-12.05 355.28-12.05ZM356.13-16.85L355.73-14.6 334.53-16.85 356.13-16.85ZM356.98-21.65L356.58-19.4 335.38-21.65 356.98-21.65ZM357.78-26.45L357.43-24.2 336.23-26.45 357.78-26.45ZM354.43-7.25L354.03-5 332.83-7.25 354.43-7.25ZM408.17-15.55L407.32-10.75 399.87-10.75 399.27-7.35 408.52-7.35 407.22 0 389.57 0 394.17-26.45 411.77-26.45 409.42-18.95 401.27-18.95 400.67-15.55 408.17-15.55ZM388.32-2.4L387.92-0.15 366.72-2.4 388.32-2.4ZM390.02-12.05L389.62-9.8 368.42-12.05 390.02-12.05ZM390.87-16.85L390.47-14.6 369.27-16.85 390.87-16.85ZM391.72-21.65L391.32-19.4 370.12-21.65 391.72-21.65ZM392.52-26.45L392.17-24.2 370.97-26.45 392.52-26.45ZM389.17-7.25L388.77-5 367.57-7.25 389.17-7.25Z" opacity="1" transform="matrix(1,0,0,1,0,0)" fill="#ffffff" class="wordmark-text-0" data-fill-palette-color="primary" id="text-0"></path></svg></g></svg></g></svg></g></svg></g><g><svg viewBox="0 0 54.03741783997401 61.302792238523416" height="61.302792238523416" width="54.03741783997401"><g><svg xmlns="http://www.w3.org/2000/svg" xmlns:xlink="http://www.w3.org/1999/xlink" version="1.1" x="0" y="0" viewBox="22.975324122455717 19.341463625770935 54.049533072850934 61.31653637422907" enable-background="new 0 0 100 100" xml:space="preserve" height="61.302792238523416" width="54.03741783997401" class="icon-icon-0" data-fill-palette-color="accent" id="icon-0"><path d="M74.111 51.793l-8.025-12.67c0 0 0-0.001 0-0.002-1.789-2.822-5.541-3.664-8.36-1.876-1.028 0.651-1.791 1.565-2.262 2.6-0.448-0.228-0.917-0.421-1.421-0.534-1.576-0.355-3.201-0.073-4.567 0.792-1.008 0.638-1.782 1.539-2.265 2.6-0.448-0.228-0.916-0.421-1.419-0.534-1.579-0.354-3.202-0.072-4.567 0.793-0.724 0.459-1.32 1.059-1.783 1.749l-5.293-8.358c-1.786-2.821-5.535-3.662-8.358-1.877-2.822 1.787-3.665 5.537-1.877 8.359L42.333 71.92c3.576 5.646 9.683 8.738 15.918 8.738 3.439 0 6.919-0.939 10.033-2.912C77.047 72.195 79.66 60.555 74.111 51.793zM66.351 74.691c-7.079 4.479-16.481 2.371-20.962-4.707L26.967 40.899c-0.72-1.138-0.38-2.649 0.757-3.37 1.138-0.719 2.649-0.381 3.369 0.757l14.006 22.117c0.344 0.543 0.93 0.84 1.529 0.84 0.331 0 0.666-0.09 0.965-0.281 0.844-0.533 1.094-1.65 0.56-2.494l-5.748-9.077-0.003-0.006c-0.349-0.551-0.462-1.204-0.32-1.841 0.143-0.637 0.525-1.18 1.077-1.528 0.55-0.35 1.205-0.463 1.84-0.319 0.637 0.144 1.18 0.525 1.529 1.076l5.752 9.082c0.344 0.543 0.93 0.842 1.529 0.842 0.33 0 0.665-0.092 0.965-0.281 0.844-0.535 1.094-1.652 0.561-2.496l-4.68-7.388c-0.001-0.001-0.002-0.003-0.002-0.004-0.35-0.551-0.463-1.204-0.321-1.841 0.143-0.637 0.525-1.179 1.077-1.527 0.551-0.35 1.203-0.465 1.842-0.32 0.637 0.144 1.179 0.525 1.527 1.076 0.001 0.001 0.002 0.002 0.002 0.002l1.059 1.672c0.004 0.006 0.006 0.011 0.009 0.016 0.001 0.002 0.003 0.004 0.005 0.006l3.607 5.698c0.345 0.543 0.931 0.842 1.529 0.842 0.331 0 0.666-0.092 0.966-0.281 0.844-0.535 1.095-1.652 0.56-2.495l-3.613-5.707c-0.717-1.139-0.377-2.646 0.758-3.366 1.139-0.72 2.65-0.38 3.371 0.757 0 0.001 0 0.002 0.001 0.002l8.024 12.67C75.538 60.805 73.428 70.209 66.351 74.691zM37.596 28.81l6.057 3.152c0.267 0.14 0.552 0.205 0.833 0.205 0.652 0 1.283-0.354 1.605-0.973 0.461-0.887 0.117-1.979-0.769-2.439l-2.228-1.159c6.494-1.726 13.334-1.294 19.647 1.321 0.227 0.094 0.461 0.139 0.691 0.139 0.709 0 1.383-0.42 1.671-1.117 0.382-0.922-0.056-1.979-0.979-2.361-7.083-2.936-14.764-3.416-22.048-1.461l1.11-2.132c0.461-0.886 0.117-1.978-0.769-2.438-0.886-0.463-1.978-0.117-2.438 0.769l-3.153 6.056c-0.222 0.426-0.265 0.922-0.121 1.379C36.851 28.207 37.171 28.588 37.596 28.81z" fill="#ffffff" data-fill-palette-color="accent"></path></svg></g></svg></g></svg></g><defs></defs></svg><rect width="395.52" height="51.94260301355403" fill="none" stroke="none" visibility="hidden"></rect></g></svg></g></svg>