<svg xmlns="http://www.w3.org/2000/svg" version="1.1" xmlns:xlink="http://www.w3.org/1999/xlink" xmlns:svgjs="http://svgjs.dev/svgjs" width="2000" height="308" viewBox="0 0 2000 308"><g transform="matrix(1,0,0,1,-1.2121212121210192,-0.47852376280656017)"><svg viewBox="0 0 396 61" data-background-color="#ffffff" preserveAspectRatio="xMidYMid meet" height="308" width="2000" xmlns="http://www.w3.org/2000/svg" xmlns:xlink="http://www.w3.org/1999/xlink"><g id="tight-bounds" transform="matrix(1,0,0,1,0.23999999999995225,0.09477256341298812)"><svg viewBox="0 0 395.52 60.81045487317404" height="60.81045487317404" width="395.52"><g><svg viewBox="0 0 544.8316007909899 83.76683220413548" height="60.81045487317404" width="395.52"><g transform="matrix(1,0,0,1,149.31160079098993,11.577036867575888)"><svg viewBox="0 0 395.52 60.61275846898371" height="60.61275846898371" width="395.52"><g id="textblocktransform"><svg viewBox="0 0 395.52 60.61275846898371" height="60.61275846898371" width="395.52" id="textblock"><g><svg viewBox="0 0 395.52 60.61275846898371" height="60.61275846898371" width="395.52"><g transform="matrix(1,0,0,1,0,0)"><svg width="395.52" viewBox="1.8 -38.35 340.92 52.25" height="60.61275846898371" data-palette-color="#000000"><path d="M13.6 0.7L13.6 0.7Q6.45 0.7 3.7-2.4L3.7-2.4Q1.8-4.6 1.8-8.55L1.8-8.55Q1.8-10.25 2.15-12.2L2.15-12.2 4.2-23.7Q6.45-36.35 20.45-36.35L20.45-36.35Q26.25-36.35 29.25-33.88 32.25-31.4 32.25-27.1L32.25-27.1Q32.25-25.1 31.68-23.13 31.1-21.15 30.55-20.2L30.55-20.2 30-19.2 21.15-19.2Q22.8-21.1 22.8-24.6L22.8-24.6Q22.8-26.45 21.85-27.53 20.9-28.6 19.05-28.6L19.05-28.6Q14-28.6 13.05-23L13.05-23 11.3-12.9Q11.05-11.6 11.05-10.35L11.05-10.35Q11.05-7.05 15-7.05L15-7.05Q19.75-7.05 20.7-12.4L20.7-12.4 29.7-12.4 29.45-10.95Q27.45 0.7 13.6 0.7ZM42.75-7.7L42.75-7.7Q42.75-6.4 44.07-6.4 45.4-6.4 46.3-6.9L46.3-6.9 46.05-1.25Q43.65 0.7 40.65 0.7L40.65 0.7Q36.1 0.7 34.75-1.4L34.75-1.4Q33.9-2.75 33.9-4.35 33.9-5.95 34.1-7.15L34.1-7.15 39.55-37.95 48.05-37.95 42.8-8.3Q42.75-8 42.75-7.7ZM59.95-6.4L59.95-6.4Q61.1-6.4 62-6.9L62-6.9 61.75-1.25Q59.4 0.7 56.4 0.7L56.4 0.7Q51.85 0.7 50.5-1.4L50.5-1.4Q49.6-2.8 49.6-4.38 49.6-5.95 49.8-7.15L49.8-7.15 52.8-24.05 61.3-24.05 58.5-8.3Q58.45-8 58.45-7.75L58.45-7.75Q58.45-6.4 59.95-6.4ZM53.8-32.2L53.8-32.2Q53.8-35.4 55.22-36.88 56.65-38.35 59.65-38.35L59.65-38.35Q63.85-38.35 63.85-34.65L63.85-34.65Q63.85-31.5 62.42-30.05 61-28.6 57.95-28.6L57.95-28.6Q53.8-28.6 53.8-32.2ZM106.44-6.4L106.44-6.4Q107.59-6.4 108.49-6.9L108.49-6.9 108.24-1.25Q105.89 0.7 102.89 0.7L102.89 0.7Q96.09 0.7 96.09-5L96.09-5Q96.09-6 96.29-7.15L96.29-7.15 97.34-13.3Q97.49-14.2 97.49-15.1L97.49-15.1Q97.49-17.5 94.87-17.5 92.24-17.5 90.74-15.45L90.74-15.45 88.04 0 79.54 0 81.89-13.3Q82.04-14.2 82.04-15.1L82.04-15.1Q82.04-17.5 79.34-17.5L79.34-17.5Q77.19-17.5 75.64-15.85L75.64-15.85 72.84 0 64.34 0 68.59-24.05 76.49-24.05 75.94-21.05Q78.94-24.75 83.54-24.75L83.54-24.75Q90.04-24.75 90.94-20.45L90.94-20.45Q93.94-24.75 98.97-24.75 103.99-24.75 105.49-22.5L105.49-22.5Q106.49-20.95 106.49-19.1 106.49-17.25 106.24-15.75L106.24-15.75 104.99-8.3Q104.94-8 104.94-7.75L104.94-7.75Q104.94-6.4 106.44-6.4ZM134.89-7.7L134.89-7.7Q134.89-6.4 136.22-6.4 137.54-6.4 138.44-6.9L138.44-6.9 138.19-1.25Q135.79 0.7 132.79 0.7L132.79 0.7Q127.29 0.7 126.69-3.3L126.69-3.3Q124.19 0.7 119.34 0.7L119.34 0.7Q111.14 0.7 111.14-6.35L111.14-6.35Q111.14-7.55 111.39-9L111.39-9 112.44-14.85Q113.24-19.35 116.12-22.03 118.99-24.7 123.62-24.7 128.24-24.7 129.89-22.55L129.89-22.55 130.14-24.05 137.74-24.05 134.94-8.3Q134.89-8 134.89-7.7ZM120.74-13.85L120.09-10.1Q119.99-9.65 119.99-8.85 119.99-8.05 120.74-7.28 121.49-6.5 123.27-6.5 125.04-6.5 126.34-7.9L126.34-7.9 127.84-16.3Q127.29-17.55 125.24-17.55L125.24-17.55Q121.39-17.55 120.74-13.85L120.74-13.85ZM152.24 0.7L152.24 0.7Q146.44 0.7 143.89-1.9L143.89-1.9Q141.99-3.8 141.99-7L141.99-7Q141.99-8.05 142.19-9.25L142.19-9.25 145.59-28.6 154.74-32.4 153.29-24.05 167.09-24.05 165.84-17 152.04-17 151.04-11.35Q150.84-10.4 150.84-9.65L150.84-9.65Q150.84-6.5 153.84-6.5L153.84-6.5Q155.44-6.5 156.51-7.85 157.59-9.2 157.99-11.45L157.99-11.45 166.29-11.45Q164.19 0.7 152.24 0.7ZM179.09 0.7L179.09 0.7Q168.69 0.7 168.69-6.5L168.69-6.5Q168.69-7.5 168.89-8.65L168.89-8.65 169.94-14.85Q170.79-19.65 174.36-22.23 177.94-24.8 183.84-24.8L183.84-24.8Q193.89-24.8 193.89-17.2L193.89-17.2Q193.89-16.1 193.69-14.8L193.69-14.8 193.09-11.25 177.84-11.25 177.64-10.1Q177.54-9.5 177.54-9L177.54-9Q177.54-6.25 180.79-6.25L180.79-6.25Q181.99-6.25 182.84-7 183.69-7.75 183.84-8.75L183.84-8.75 192.14-8.65Q190.49 0.7 179.09 0.7ZM178.34-14.3L185.09-14.3Q185.29-15.15 185.29-15.88 185.29-16.6 184.64-17.35 183.99-18.1 182.56-18.1 181.14-18.1 179.96-17.15 178.79-16.2 178.34-14.3L178.34-14.3ZM205.98-10.25L205.98-10.25Q205.98-6.8 210.96-6.8 215.93-6.8 215.93-9.9L215.93-9.9Q215.93-11.55 214.23-12.6 212.53-13.65 210.11-14.35 207.68-15.05 205.26-15.98 202.83-16.9 201.13-18.88 199.43-20.85 199.43-23.8L199.43-23.8Q199.43-36.35 215.58-36.35L215.58-36.35Q221.48-36.35 224.51-34.13 227.53-31.9 227.53-27.95L227.53-27.95Q227.53-26.5 227.16-25.18 226.78-23.85 226.38-23.3L226.38-23.3 225.98-22.7 217.13-22.7Q218.23-23.85 218.23-25.6L218.23-25.6Q218.23-28.85 213.98-28.85L213.98-28.85Q208.63-28.85 208.63-25.45L208.63-25.45Q208.63-23.75 210.33-22.75 212.03-21.75 214.46-21.18 216.88-20.6 219.33-19.75 221.78-18.9 223.48-16.93 225.18-14.95 225.18-11.8L225.18-11.8Q225.18-5.45 221.38-2.38 217.58 0.7 209.68 0.7 201.78 0.7 198.88-2.1L198.88-2.1Q196.73-4.2 196.73-7.9L196.73-7.9Q196.73-9.3 197.03-10.95L197.03-10.95 197.18-11.75 206.18-11.75 206.08-11.15Q205.98-10.65 205.98-10.25ZM261.33-24.05L269.83-24.05Q270.53-21.95 270.53-18.48 270.53-15 269.68-11.8 268.83-8.6 267.11-5.73 265.38-2.85 262.31-1.07 259.23 0.7 255.23 0.7L255.23 0.7Q249.23 0.7 247.23-2.65L247.23-2.65Q243.63 0.7 239.18 0.7L239.18 0.7Q233.18 0.7 230.93-1.85L230.93-1.85Q229.43-3.55 229.43-6.9L229.43-6.9Q229.43-8.65 229.83-10.8L229.83-10.8 232.18-24.05 240.68-24.05 238.33-10.75Q238.18-10 238.18-9.4L238.18-9.4Q238.18-6.55 241.13-6.55L241.13-6.55Q243.18-6.55 244.23-8.33 245.28-10.1 246.03-14.55L246.03-14.55 247.73-24.05 256.23-24.05 253.88-10.75Q253.73-10 253.73-9.4L253.73-9.4Q253.73-6.55 256.68-6.55L256.68-6.55Q261.88-6.55 261.88-17.45L261.88-17.45Q261.88-20 261.48-23.1L261.48-23.1 261.33-24.05ZM283.93-6.4L283.93-6.4Q285.08-6.4 285.98-6.9L285.98-6.9 285.73-1.25Q283.38 0.7 280.38 0.7L280.38 0.7Q275.83 0.7 274.48-1.4L274.48-1.4Q273.58-2.8 273.58-4.38 273.58-5.95 273.78-7.15L273.78-7.15 276.78-24.05 285.28-24.05 282.48-8.3Q282.43-8 282.43-7.75L282.43-7.75Q282.43-6.4 283.93-6.4ZM277.78-32.2L277.78-32.2Q277.78-35.4 279.2-36.88 280.63-38.35 283.63-38.35L283.63-38.35Q287.83-38.35 287.83-34.65L287.83-34.65Q287.83-31.5 286.4-30.05 284.98-28.6 281.93-28.6L281.93-28.6Q277.78-28.6 277.78-32.2ZM306.38-24.7L306.38-24.7Q311.48-24.7 313.43-22L313.43-22Q314.83-20.15 314.83-17.3L314.83-17.3Q314.83-16.15 314.58-14.85L314.58-14.85 313.58-9Q312.73-4.25 309.93-1.78 307.13 0.7 302.93 0.7 298.73 0.7 297.08-1.55L297.08-1.55 294.38 13.9 285.88 13.9 292.58-24.05 300.28-24.05 300.03-22.7Q302.38-24.7 306.38-24.7ZM301.18-6.5L301.18-6.5Q302.58-6.5 303.78-7.4 304.98-8.3 305.28-10.1L305.28-10.1 305.93-13.85Q306.03-14.35 306.03-15.1 306.03-15.85 305.38-16.7 304.73-17.55 303.13-17.55L303.13-17.55Q300.53-17.55 299.73-16.3L299.73-16.3 298.23-7.9Q298.93-6.5 301.18-6.5ZM327.92 0.7L327.92 0.7Q317.52 0.7 317.52-6.5L317.52-6.5Q317.52-7.5 317.72-8.65L317.72-8.65 318.77-14.85Q319.62-19.65 323.2-22.23 326.77-24.8 332.67-24.8L332.67-24.8Q342.72-24.8 342.72-17.2L342.72-17.2Q342.72-16.1 342.52-14.8L342.52-14.8 341.92-11.25 326.67-11.25 326.47-10.1Q326.37-9.5 326.37-9L326.37-9Q326.37-6.25 329.62-6.25L329.62-6.25Q330.82-6.25 331.67-7 332.52-7.75 332.67-8.75L332.67-8.75 340.97-8.65Q339.32 0.7 327.92 0.7ZM327.17-14.3L333.92-14.3Q334.12-15.15 334.12-15.88 334.12-16.6 333.47-17.35 332.82-18.1 331.4-18.1 329.97-18.1 328.8-17.15 327.62-16.2 327.17-14.3L327.17-14.3Z" opacity="1" transform="matrix(1,0,0,1,0,0)" fill="#000000" class="wordmark-text-0" data-fill-palette-color="primary" id="text-0"></path></svg></g></svg></g></svg></g></svg></g><g><svg viewBox="0 0 135.00238322266614 83.76683220413548" height="83.76683220413548" width="135.00238322266614"><g><svg xmlns="http://www.w3.org/2000/svg" xmlns:xlink="http://www.w3.org/1999/xlink" version="1.1" x="0" y="0" viewBox="6.808547814796744 23.081000000000017 86.3293677154037 53.56599999999999" style="enable-background:new 0 0 100 100;" xml:space="preserve" height="83.76683220413548" width="135.00238322266614" class="icon-icon-0" data-fill-palette-color="accent" id="icon-0"><path d="M84.234 76.647c-0.107 0-0.215-0.018-0.316-0.055-0.096-0.034-9.668-3.408-14.167-3.408-0.446 0-0.816 0.034-1.102 0.102-10.536 2.479-17.544 2.835-25.272 1.311-11.91-2.348-14.845-20.054-15.297-23.419-6.154-5.646-12.437-11.405-13.371-12.246-4.648-4.178-7.258-7.428-7.757-9.659-0.301-1.348-0.128-2.442 0.516-3.248 0.864-1.078 2.236-1.195 2.787-1.195 0.213 0 0.407 0.017 0.564 0.04 1.391 0.21 11.706 6.055 19.884 10.784-0.361-0.297-0.694-0.566-0.99-0.794-1.977-1.534-2.012-3.166-1.691-4.263 0.69-2.368 3.683-4.203 4.521-4.281 0.002 0 0.004 0 0.007 0 0.875 0 2.848 0.577 5.094 1.346 0.76-1.854 3.483-3.985 3.516-4.012 0.368-0.281 1.019-0.569 3.067-0.569 4.193 0 12.654 1.245 21.055 3.096 5.17 1.139 10.915 9.202 13.675 13.076l0.34 0.478c2.887 4.037 13.062 7.118 13.166 7.149 0.496 0.149 0.781 0.669 0.638 1.167L85.144 75.96c-0.07 0.252-0.244 0.461-0.475 0.582C84.532 76.612 84.384 76.647 84.234 76.647zM69.751 71.29c3.993 0 11.239 2.312 13.847 3.19l7.43-26.069c-2.675-0.884-10.523-3.736-13.269-7.578l-0.344-0.481c-2.418-3.395-8.081-11.344-12.539-12.326-8.281-1.826-16.578-3.052-20.648-3.052-1.563 0-1.924 0.188-1.938 0.195-1.08 0.83-2.406 2.27-2.823 3.019 2.214 0.56 7.325 2.915 7.935 3.198 0.468 0.216 0.677 0.766 0.47 1.237-0.205 0.473-0.755 0.692-1.226 0.498-4.644-1.902-12.53-4.92-13.922-4.92-0.466 0.154-2.656 1.628-2.928 3.117-0.048 0.262-0.194 1.057 1.08 2.045 2.665 2.066 8.227 7.133 8.462 7.348 0.359 0.327 0.412 0.872 0.124 1.262-0.289 0.39-0.825 0.499-1.241 0.254-9.866-5.796-26.112-15.125-27.7-15.487-0.061-0.008-0.159-0.016-0.265-0.016-0.216 0-0.949 0.035-1.308 0.485-0.335 0.417-0.265 1.127-0.146 1.65 0.394 1.762 3.009 4.92 7.175 8.665 0.949 0.854 7.4 6.767 13.639 12.494 0.166 0.153 0.274 0.36 0.3 0.584 0.246 2.036 2.723 19.949 13.828 22.138 7.462 1.47 14.213 1.118 24.473-1.297C68.649 71.34 69.152 71.29 69.751 71.29z" fill="#000000" data-fill-palette-color="accent"></path></svg></g></svg></g></svg></g><defs></defs></svg><rect width="395.52" height="60.81045487317404" fill="none" stroke="none" visibility="hidden"></rect></g></svg></g></svg>