<svg xmlns="http://www.w3.org/2000/svg" version="1.1" xmlns:xlink="http://www.w3.org/1999/xlink" xmlns:svgjs="http://svgjs.dev/svgjs" width="1500" height="1500" viewBox="0 0 1500 1500"><rect width="1500" height="1500" fill="#ffffff"></rect><g transform="matrix(0.6666666666666666,0,0,0.6666666666666666,249.39393939393938,438.5856950067477)"><svg viewBox="0 0 396 247" data-background-color="#97978d" preserveAspectRatio="xMidYMid meet" height="935" width="1500" xmlns="http://www.w3.org/2000/svg" xmlns:xlink="http://www.w3.org/1999/xlink"><g id="tight-bounds" transform="matrix(1,0,0,1,0.2400000000000091,-0.09999999999999432)"><svg viewBox="0 0 395.52 247.2" height="247.2" width="395.52"><g><svg></svg></g><g><svg viewBox="0 0 395.52 247.2" height="247.2" width="395.52"><g><path d="M55.039 247.2l47.293-81.914 0 0.977-46.431 80.422h283.718l-46.431-80.422v-0.977l47.293 81.914zM197.76 0l26.403 45.732-0.564 0-25.839-44.755-25.839 44.755-0.564 0z" fill="#000000" fill-rule="nonzero" stroke="none" stroke-width="1" stroke-linecap="butt" stroke-linejoin="miter" stroke-miterlimit="10" stroke-dasharray="" stroke-dashoffset="0" font-family="none" font-weight="none" font-size="none" text-anchor="none" style="mix-blend-mode: normal" data-fill-palette-color="tertiary"></path></g><g transform="matrix(1,0,0,1,124.58034971860313,67.97999999999999)"><svg viewBox="0 0 146.35930056279372 111.24" height="111.24" width="146.35930056279372"><g><svg viewBox="0 0 395.52000000000004 300.6139318158557" height="111.24" width="146.35930056279372"><g><svg viewBox="0 0 395.52000000000004 132.43842912656424" height="132.43842912656424" width="395.52000000000004"><g id="textblocktransform"><svg viewBox="0 0 395.52000000000004 132.43842912656424" height="132.43842912656424" width="395.52000000000004" id="textblock"><g><svg viewBox="0 0 395.52000000000004 101.78297178918494" height="101.78297178918494" width="395.52000000000004"><rect width="395.52000000000004" height="101.78297178918494" x="0" y="0" opacity="1" fill="#000000" data-fill-palette-color="tertiary"></rect><g transform="matrix(1,0,0,1,10.5577672644,10.5577672644)"><svg width="374.4044654712" viewBox="3.1 -37.5 174.02 37.5" height="80.66743726038494" data-palette-color="#97978d"><path d="M7.75 0L3.1 0 3.1-35 7.75-35 7.75 0ZM17.75 0L13.05 0 13.05-25 23.5-25Q24.95-25 26.05-23.95 27.15-22.9 27.15-21.4L27.15-21.4 27.15 0 22.45 0 22.45-18.5Q22.45-19.3 21.9-19.8 21.35-20.3 20.65-20.3L20.65-20.3 17.75-20.3 17.75 0ZM35.55-32.8L30.85-31.7 30.85-36.4 35.55-37.5 35.55-32.8ZM35.65 0L30.95 0 30.95-23.9 35.65-25 35.65 0ZM44.34 0L39.64 0 39.64-36.4 44.34-37.45 44.34-25 50.29-25 49.19-20.3 44.34-20.3 44.34 0ZM64.49 0L59.79 0 59.79-36.4 64.49-37.45 64.49-25 70.44-25 69.34-20.3 64.49-20.3 64.49 0ZM82.29 0L75.49 0Q73.94 0 72.89-1.07 71.84-2.15 71.84-3.65L71.84-3.65 71.84-21.35Q71.84-22.85 72.89-23.93 73.94-25 75.49-25L75.49-25 82.29-25Q83.79-25 84.84-23.93 85.89-22.85 85.89-21.35L85.89-21.35 85.89-3.65Q85.89-2.15 84.84-1.07 83.79 0 82.29 0L82.29 0ZM78.34-4.7L78.34-4.7 79.39-4.7Q80.14-4.7 80.69-5.23 81.24-5.75 81.24-6.5L81.24-6.5 81.24-18.5Q81.24-19.25 80.69-19.78 80.14-20.3 79.39-20.3L79.39-20.3 78.34-20.3Q77.59-20.3 77.06-19.78 76.54-19.25 76.54-18.5L76.54-18.5 76.54-6.5Q76.54-5.75 77.06-5.23 77.59-4.7 78.34-4.7ZM120.38 0L100.58 0Q99.08 0 98.01-1.07 96.93-2.15 96.93-3.65L96.93-3.65 96.93-25 101.63-25 101.63-6.5Q101.63-5.75 102.16-5.23 102.68-4.7 103.43-4.7L103.43-4.7 106.33-4.7 106.33-25 111.03-25 111.03-6.5Q111.03-5.75 111.56-5.23 112.08-4.7 112.83-4.7L112.83-4.7 115.68-4.7 115.68-25 120.38-25 120.38 0ZM128.58-32.8L123.88-31.7 123.88-36.4 128.58-37.5 128.58-32.8ZM128.68 0L123.98 0 123.98-23.9 128.68-25 128.68 0ZM136.58 0L131.88 0 131.88-25 142.33-25Q143.78-25 144.88-23.95 145.98-22.9 145.98-21.4L145.98-21.4 145.98 0 141.28 0 141.28-18.5Q141.28-19.3 140.73-19.8 140.18-20.3 139.48-20.3L139.48-20.3 136.58-20.3 136.58 0ZM162.37-32.8L157.67-31.7 157.67-36.4 162.37-37.5 162.37-32.8ZM162.47 0L157.77 0 157.77-23.9 162.47-25 162.47 0ZM171.17 0L166.47 0 166.47-36.4 171.17-37.45 171.17-25 177.12-25 176.02-20.3 171.17-20.3 171.17 0Z" opacity="1" transform="matrix(1,0,0,1,0,0)" fill="#ffffff" class="wordmark-text-0" data-fill-palette-color="quaternary" id="text-0"></path></svg></g></svg></g><g transform="matrix(1,0,0,1,0,107.06185542138495)"><svg viewBox="0 0 395.52000000000004 25.37657370517929" height="25.37657370517929" width="395.52000000000004"><g transform="matrix(1,0,0,1,0,0)"><svg width="395.52000000000004" viewBox="0.6 -38.2 602.34 38.650000000000006" height="25.37657370517929" data-palette-color="#636365"><path d="M35.85-27.4L40.35-27.4 31.8 0 27.1 0 20.5-21.75 13.9 0 9.2 0 0.6-27.4 5.25-27.4 11.55-4.4 18.35-27.4 23-27.4 29.65-4.35 35.85-27.4ZM69.85-14.75Q69.85-13.45 69.7-12L69.7-12 47.8-12Q48.05-7.95 50.57-5.68 53.1-3.4 56.7-3.4L56.7-3.4Q59.65-3.4 61.62-4.78 63.6-6.15 64.4-8.45L64.4-8.45 69.3-8.45Q68.2-4.5 64.9-2.02 61.6 0.45 56.7 0.45L56.7 0.45Q52.8 0.45 49.72-1.3 46.65-3.05 44.9-6.28 43.15-9.5 43.15-13.75L43.15-13.75Q43.15-18 44.85-21.2 46.55-24.4 49.62-26.13 52.7-27.85 56.7-27.85L56.7-27.85Q60.6-27.85 63.6-26.15 66.6-24.45 68.22-21.48 69.85-18.5 69.85-14.75L69.85-14.75ZM65.15-15.7Q65.15-18.3 64-20.18 62.85-22.05 60.87-23.03 58.9-24 56.5-24L56.5-24Q53.05-24 50.62-21.8 48.2-19.6 47.85-15.7L47.85-15.7 65.15-15.7ZM101.89-23.65L94.74-23.65 94.74-7.5Q94.74-5.5 95.59-4.67 96.44-3.85 98.54-3.85L98.54-3.85 101.89-3.85 101.89 0 97.79 0Q93.99 0 92.09-1.75 90.19-3.5 90.19-7.5L90.19-7.5 90.19-23.65 86.64-23.65 86.64-27.4 90.19-27.4 90.19-34.3 94.74-34.3 94.74-27.4 101.89-27.4 101.89-23.65ZM127.14-27.4L131.69-27.4 131.69 0 127.14 0 127.14-4.05Q125.84-1.95 123.52-0.78 121.19 0.4 118.39 0.4L118.39 0.4Q115.19 0.4 112.64-0.93 110.09-2.25 108.62-4.9 107.14-7.55 107.14-11.35L107.14-11.35 107.14-27.4 111.64-27.4 111.64-11.95Q111.64-7.9 113.69-5.73 115.74-3.55 119.29-3.55L119.29-3.55Q122.94-3.55 125.04-5.8 127.14-8.05 127.14-12.35L127.14-12.35 127.14-27.4ZM143.94-22.95Q145.14-25.3 147.36-26.6 149.59-27.9 152.79-27.9L152.79-27.9 152.79-23.2 151.59-23.2Q143.94-23.2 143.94-14.9L143.94-14.9 143.94 0 139.39 0 139.39-27.4 143.94-27.4 143.94-22.95ZM171.39-27.9Q176.39-27.9 179.49-24.88 182.59-21.85 182.59-16.15L182.59-16.15 182.59 0 178.09 0 178.09-15.5Q178.09-19.6 176.04-21.78 173.99-23.95 170.44-23.95L170.44-23.95Q166.84-23.95 164.71-21.7 162.59-19.45 162.59-15.15L162.59-15.15 162.59 0 158.04 0 158.04-27.4 162.59-27.4 162.59-23.5Q163.94-25.6 166.26-26.75 168.59-27.9 171.39-27.9L171.39-27.9ZM201.68-13.75Q201.68-18 203.38-21.18 205.08-24.35 208.11-26.1 211.13-27.85 215.03-27.85L215.03-27.85Q220.08-27.85 223.36-25.4 226.63-22.95 227.68-18.6L227.68-18.6 222.78-18.6Q222.08-21.1 220.06-22.55 218.03-24 215.03-24L215.03-24Q211.13-24 208.73-21.33 206.33-18.65 206.33-13.75L206.33-13.75Q206.33-8.8 208.73-6.1 211.13-3.4 215.03-3.4L215.03-3.4Q218.03-3.4 220.03-4.8 222.03-6.2 222.78-8.8L222.78-8.8 227.68-8.8Q226.58-4.6 223.28-2.08 219.98 0.45 215.03 0.45L215.03 0.45Q211.13 0.45 208.11-1.3 205.08-3.05 203.38-6.25 201.68-9.45 201.68-13.75L201.68-13.75ZM245.68 0.45Q241.83 0.45 238.7-1.3 235.58-3.05 233.8-6.28 232.03-9.5 232.03-13.75L232.03-13.75Q232.03-17.95 233.85-21.18 235.68-24.4 238.83-26.13 241.98-27.85 245.88-27.85L245.88-27.85Q249.78-27.85 252.93-26.13 256.08-24.4 257.9-21.2 259.73-18 259.73-13.75L259.73-13.75Q259.73-9.5 257.85-6.28 255.98-3.05 252.78-1.3 249.58 0.45 245.68 0.45L245.68 0.45ZM245.68-3.55Q248.13-3.55 250.28-4.7 252.43-5.85 253.75-8.15 255.08-10.45 255.08-13.75L255.08-13.75Q255.08-17.05 253.78-19.35 252.48-21.65 250.38-22.78 248.28-23.9 245.83-23.9L245.83-23.9Q243.33-23.9 241.25-22.78 239.18-21.65 237.93-19.35 236.68-17.05 236.68-13.75L236.68-13.75Q236.68-10.4 237.9-8.1 239.13-5.8 241.18-4.67 243.23-3.55 245.68-3.55L245.68-3.55ZM276.88-27.4L276.88-23.65 271.13-23.65 271.13 0 266.58 0 266.58-23.65 263.03-23.65 263.03-27.4 266.58-27.4 266.58-29.35Q266.58-33.95 268.95-36.08 271.33-38.2 276.58-38.2L276.58-38.2 276.58-34.4Q273.58-34.4 272.35-33.23 271.13-32.05 271.13-29.35L271.13-29.35 271.13-27.4 276.88-27.4ZM293.32-27.4L293.32-23.65 287.57-23.65 287.57 0 283.02 0 283.02-23.65 279.47-23.65 279.47-27.4 283.02-27.4 283.02-29.35Q283.02-33.95 285.4-36.08 287.77-38.2 293.02-38.2L293.02-38.2 293.02-34.4Q290.02-34.4 288.8-33.23 287.57-32.05 287.57-29.35L287.57-29.35 287.57-27.4 293.32-27.4ZM323.62-14.75Q323.62-13.45 323.47-12L323.47-12 301.57-12Q301.82-7.95 304.35-5.68 306.87-3.4 310.47-3.4L310.47-3.4Q313.42-3.4 315.4-4.78 317.37-6.15 318.17-8.45L318.17-8.45 323.07-8.45Q321.97-4.5 318.67-2.02 315.37 0.45 310.47 0.45L310.47 0.45Q306.57 0.45 303.5-1.3 300.42-3.05 298.67-6.28 296.92-9.5 296.92-13.75L296.92-13.75Q296.92-18 298.62-21.2 300.32-24.4 303.4-26.13 306.47-27.85 310.47-27.85L310.47-27.85Q314.37-27.85 317.37-26.15 320.37-24.45 322-21.48 323.62-18.5 323.62-14.75L323.62-14.75ZM318.92-15.7Q318.92-18.3 317.77-20.18 316.62-22.05 314.65-23.03 312.67-24 310.27-24L310.27-24Q306.82-24 304.4-21.8 301.97-19.6 301.62-15.7L301.62-15.7 318.92-15.7ZM354.62-14.75Q354.62-13.45 354.47-12L354.47-12 332.57-12Q332.82-7.95 335.34-5.68 337.87-3.4 341.47-3.4L341.47-3.4Q344.42-3.4 346.39-4.78 348.37-6.15 349.17-8.45L349.17-8.45 354.07-8.45Q352.97-4.5 349.67-2.02 346.37 0.45 341.47 0.45L341.47 0.45Q337.57 0.45 334.49-1.3 331.42-3.05 329.67-6.28 327.92-9.5 327.92-13.75L327.92-13.75Q327.92-18 329.62-21.2 331.32-24.4 334.39-26.13 337.47-27.85 341.47-27.85L341.47-27.85Q345.37-27.85 348.37-26.15 351.37-24.45 352.99-21.48 354.62-18.5 354.62-14.75L354.62-14.75ZM349.92-15.7Q349.92-18.3 348.77-20.18 347.62-22.05 345.64-23.03 343.67-24 341.27-24L341.27-24Q337.82-24 335.39-21.8 332.97-19.6 332.62-15.7L332.62-15.7 349.92-15.7ZM376.31-31.85Q375.01-31.85 374.11-32.75 373.21-33.65 373.21-34.95L373.21-34.95Q373.21-36.25 374.11-37.15 375.01-38.05 376.31-38.05L376.31-38.05Q377.56-38.05 378.44-37.15 379.31-36.25 379.31-34.95L379.31-34.95Q379.31-33.65 378.44-32.75 377.56-31.85 376.31-31.85L376.31-31.85ZM373.96-27.4L378.51-27.4 378.51 0 373.96 0 373.96-27.4ZM399.61-27.9Q404.61-27.9 407.71-24.88 410.81-21.85 410.81-16.15L410.81-16.15 410.81 0 406.31 0 406.31-15.5Q406.31-19.6 404.26-21.78 402.21-23.95 398.66-23.95L398.66-23.95Q395.06-23.95 392.94-21.7 390.81-19.45 390.81-15.15L390.81-15.15 390.81 0 386.26 0 386.26-27.4 390.81-27.4 390.81-23.5Q392.16-25.6 394.49-26.75 396.81-27.9 399.61-27.9L399.61-27.9ZM430.96-23.65L423.81-23.65 423.81-7.5Q423.81-5.5 424.66-4.67 425.51-3.85 427.61-3.85L427.61-3.85 430.96-3.85 430.96 0 426.86 0Q423.06 0 421.16-1.75 419.26-3.5 419.26-7.5L419.26-7.5 419.26-23.65 415.71-23.65 415.71-27.4 419.26-27.4 419.26-34.3 423.81-34.3 423.81-27.4 430.96-27.4 430.96-23.65ZM448.41 0.45Q444.56 0.45 441.43-1.3 438.31-3.05 436.53-6.28 434.76-9.5 434.76-13.75L434.76-13.75Q434.76-17.95 436.58-21.18 438.41-24.4 441.56-26.13 444.71-27.85 448.61-27.85L448.61-27.85Q452.51-27.85 455.66-26.13 458.81-24.4 460.63-21.2 462.46-18 462.46-13.75L462.46-13.75Q462.46-9.5 460.58-6.28 458.71-3.05 455.51-1.3 452.31 0.45 448.41 0.45L448.41 0.45ZM448.41-3.55Q450.86-3.55 453.01-4.7 455.16-5.85 456.48-8.15 457.81-10.45 457.81-13.75L457.81-13.75Q457.81-17.05 456.51-19.35 455.21-21.65 453.11-22.78 451.01-23.9 448.56-23.9L448.56-23.9Q446.06-23.9 443.98-22.78 441.91-21.65 440.66-19.35 439.41-17.05 439.41-13.75L439.41-13.75Q439.41-10.4 440.63-8.1 441.86-5.8 443.91-4.67 445.96-3.55 448.41-3.55L448.41-3.55ZM480.1-13.75Q480.1-18 481.8-21.18 483.5-24.35 486.53-26.1 489.55-27.85 493.45-27.85L493.45-27.85Q498.5-27.85 501.78-25.4 505.05-22.95 506.1-18.6L506.1-18.6 501.2-18.6Q500.5-21.1 498.48-22.55 496.45-24 493.45-24L493.45-24Q489.55-24 487.15-21.33 484.75-18.65 484.75-13.75L484.75-13.75Q484.75-8.8 487.15-6.1 489.55-3.4 493.45-3.4L493.45-3.4Q496.45-3.4 498.45-4.8 500.45-6.2 501.2-8.8L501.2-8.8 506.1-8.8Q505-4.6 501.7-2.08 498.4 0.45 493.45 0.45L493.45 0.45Q489.55 0.45 486.53-1.3 483.5-3.05 481.8-6.25 480.1-9.45 480.1-13.75L480.1-13.75ZM524.1 0.45Q520.25 0.45 517.12-1.3 514-3.05 512.22-6.28 510.45-9.5 510.45-13.75L510.45-13.75Q510.45-17.95 512.27-21.18 514.1-24.4 517.25-26.13 520.4-27.85 524.3-27.85L524.3-27.85Q528.2-27.85 531.35-26.13 534.5-24.4 536.32-21.2 538.15-18 538.15-13.75L538.15-13.75Q538.15-9.5 536.27-6.28 534.4-3.05 531.2-1.3 528 0.45 524.1 0.45L524.1 0.45ZM524.1-3.55Q526.55-3.55 528.7-4.7 530.85-5.85 532.17-8.15 533.5-10.45 533.5-13.75L533.5-13.75Q533.5-17.05 532.2-19.35 530.9-21.65 528.8-22.78 526.7-23.9 524.25-23.9L524.25-23.9Q521.75-23.9 519.67-22.78 517.6-21.65 516.35-19.35 515.1-17.05 515.1-13.75L515.1-13.75Q515.1-10.4 516.32-8.1 517.55-5.8 519.6-4.67 521.65-3.55 524.1-3.55L524.1-3.55ZM542.45-13.8Q542.45-18 544.15-21.18 545.85-24.35 548.82-26.1 551.8-27.85 555.5-27.85L555.5-27.85Q558.7-27.85 561.45-26.38 564.2-24.9 565.65-22.5L565.65-22.5 565.65-37 570.25-37 570.25 0 565.65 0 565.65-5.15Q564.3-2.7 561.65-1.13 559 0.45 555.45 0.45L555.45 0.45Q551.8 0.45 548.82-1.35 545.85-3.15 544.15-6.4 542.45-9.65 542.45-13.8L542.45-13.8ZM565.65-13.75Q565.65-16.85 564.4-19.15 563.15-21.45 561.02-22.68 558.9-23.9 556.35-23.9L556.35-23.9Q553.8-23.9 551.7-22.7 549.6-21.5 548.35-19.2 547.1-16.9 547.1-13.8L547.1-13.8Q547.1-10.65 548.35-8.33 549.6-6 551.7-4.78 553.8-3.55 556.35-3.55L556.35-3.55Q558.9-3.55 561.02-4.78 563.15-6 564.4-8.33 565.65-10.65 565.65-13.75L565.65-13.75ZM602.94-14.75Q602.94-13.45 602.79-12L602.79-12 580.89-12Q581.14-7.95 583.67-5.68 586.19-3.4 589.79-3.4L589.79-3.4Q592.74-3.4 594.72-4.78 596.69-6.15 597.49-8.45L597.49-8.45 602.39-8.45Q601.29-4.5 597.99-2.02 594.69 0.45 589.79 0.45L589.79 0.45Q585.89 0.45 582.82-1.3 579.74-3.05 577.99-6.28 576.24-9.5 576.24-13.75L576.24-13.75Q576.24-18 577.94-21.2 579.64-24.4 582.72-26.13 585.79-27.85 589.79-27.85L589.79-27.85Q593.69-27.85 596.69-26.15 599.69-24.45 601.32-21.48 602.94-18.5 602.94-14.75L602.94-14.75ZM598.24-15.7Q598.24-18.3 597.09-20.18 595.94-22.05 593.97-23.03 591.99-24 589.59-24L589.59-24Q586.14-24 583.72-21.8 581.29-19.6 580.94-15.7L580.94-15.7 598.24-15.7Z" opacity="1" transform="matrix(1,0,0,1,0,0)" fill="#000000" class="slogan-text-1" data-fill-palette-color="secondary" id="text-1"></path></svg></g></svg></g></svg></g></svg></g><g transform="matrix(1,0,0,1,92.05024448267243,137.71731275876425)"><svg viewBox="0 0 211.4195110346552 162.8966190570915" height="162.8966190570915" width="211.4195110346552"><g><svg version="1.1" xmlns="http://www.w3.org/2000/svg" xmlns:xlink="http://www.w3.org/1999/xlink" x="0" y="0" viewBox="0 0 100 77.049" enable-background="new 0 0 100 77.049" xml:space="preserve" width="211.4195110346552" height="162.8966190570915" class="icon-icon-0" data-fill-palette-color="accent" id="icon-0"><path fill="#000000" d="M99.957 36.065c-0.859 22.779-19.59 40.984-42.58 40.984-11.67 0-22.237-4.696-29.932-12.297h-15.15C5.504 64.752 0 59.25 0 52.458c0-6.789 5.504-12.293 12.295-12.293h2.861c-0.181-1.347-0.285-2.718-0.342-4.1h-0.06v-4.917H100v4.917H99.957zM19.731 36.065c0.137 3.117 0.632 6.143 1.479 9.018h-8.915c-4.075 0-7.377 3.301-7.377 7.375 0 4.075 3.302 7.379 7.377 7.379h17.227c6.895 7.554 16.82 12.295 27.854 12.295 20.272 0 36.806-16.002 37.663-36.065L19.731 36.065 19.731 36.065z" data-fill-palette-color="accent"></path><path fill="#000000" d="M63.936 21.311v-2.458c0-3.357-2.476-5.737-5.737-5.737-0.14 0.005-0.683 0-0.82 0-5.974 0-10.656-4.736-10.656-10.657V0h4.917v2.458c0 3.205 2.482 5.738 5.739 5.738 0.14-0.006 0.681 0 0.82 0 5.719 0 10.228 4.002 10.614 9.836h0.039v3.278L63.936 21.311 63.936 21.311z" data-fill-palette-color="accent"></path><path fill="#000000" d="M50 21.311c-7.377 0-11.454-4.735-11.454-10.656h-0.021V8.196h4.918v2.458h0.02c0 3.204 3.281 5.737 6.537 5.737h2.46v4.918H50V21.311z" data-fill-palette-color="accent"></path><circle fill="#000000" cx="13.114" cy="52.459" r="4.1" data-fill-palette-color="accent"></circle></svg></g></svg></g><g></g></svg></g></svg></g></svg></g><defs></defs></svg><rect width="395.52" height="247.2" fill="none" stroke="none" visibility="hidden"></rect></g></svg></g></svg>